<?xml version="1.0" encoding="UTF-8"?>
<!DOCTYPE svg PUBLIC "-//W3C//DTD SVG 1.1//EN" "http://www.w3.org/Graphics/SVG/1.1/DTD/svg11.dtd">
<svg xmlns="http://www.w3.org/2000/svg" version="1.1" width="12146px" height="1280px" style="shape-rendering:geometricPrecision; text-rendering:geometricPrecision; image-rendering:optimizeQuality; fill-rule:evenodd; clip-rule:evenodd" xmlns:xlink="http://www.w3.org/1999/xlink">
<g><path style="opacity:1" fill="#f9faf9" d="M 8717.5,-0.5 C 8731.5,-0.5 8745.5,-0.5 8759.5,-0.5C 8824.85,8.66868 8868.02,44.6687 8889,107.5C 8902.95,159.104 8895.29,207.104 8866,251.5C 8834.03,293.396 8791.53,313.729 8738.5,312.5C 8671.09,312.396 8622.93,282.063 8594,221.5C 8577.33,177.833 8577.33,134.167 8594,90.5C 8618.66,37.6626 8659.83,7.32925 8717.5,-0.5 Z"/></g>
<g><path style="opacity:1" fill="#f9faf9" d="M 5687.5,77.5 C 5792.1,73.282 5893.76,88.4487 5992.5,123C 6017.7,131.78 6041.7,142.947 6064.5,156.5C 6048.06,227.859 6031.56,299.192 6015,370.5C 5915.1,321.586 5809.6,300.086 5698.5,306C 5669.76,308.245 5643.43,317.245 5619.5,333C 5602.78,347.276 5593.61,365.442 5592,387.5C 5587.53,421.445 5597.7,449.945 5622.5,473C 5644.58,489.716 5668.58,503.383 5694.5,514C 5741.92,534.139 5789.25,554.472 5836.5,575C 5872.57,591.534 5907.57,609.867 5941.5,630C 5991.53,661.03 6032.7,701.196 6065,750.5C 6090.74,792.099 6104.74,837.432 6107,886.5C 6111.58,1032.22 6051.41,1141.72 5926.5,1215C 5854.27,1254.39 5776.94,1275.06 5694.5,1277C 5563.91,1281.42 5438.58,1258.08 5318.5,1207C 5310.22,1203.53 5302.22,1199.53 5294.5,1195C 5313.89,1122.93 5333.06,1050.76 5352,978.5C 5352.41,978.043 5352.91,977.709 5353.5,977.5C 5427.03,1013.29 5504.37,1036.46 5585.5,1047C 5625.19,1051.48 5664.85,1051.48 5704.5,1047C 5732.55,1043.21 5758.55,1033.87 5782.5,1019C 5809.24,998.846 5822.24,971.846 5821.5,938C 5821.05,912.97 5812.55,891.136 5796,872.5C 5778.58,854.38 5758.75,839.547 5736.5,828C 5724.5,822 5712.5,816 5700.5,810C 5657.83,792.667 5615.17,775.333 5572.5,758C 5511.24,732.064 5455.24,698.064 5404.5,656C 5336.45,593.418 5303.45,515.585 5305.5,422.5C 5305.66,258.931 5383.32,152.097 5538.5,102C 5587.3,87.7222 5636.96,79.5555 5687.5,77.5 Z"/></g>
<g><path style="opacity:1" fill="#f9faf9" d="M -0.5,98.5 C 94.8333,98.5 190.167,98.5 285.5,98.5C 285.5,249.5 285.5,400.5 285.5,551.5C 426.5,551.5 567.5,551.5 708.5,551.5C 708.5,400.5 708.5,249.5 708.5,98.5C 803.833,98.5 899.167,98.5 994.5,98.5C 994.5,484.5 994.5,870.5 994.5,1256.5C 899.167,1256.5 803.833,1256.5 708.5,1256.5C 708.5,1099.5 708.5,942.5 708.5,785.5C 567.5,785.5 426.5,785.5 285.5,785.5C 285.5,942.5 285.5,1099.5 285.5,1256.5C 190.167,1256.5 94.8333,1256.5 -0.5,1256.5C -0.5,870.5 -0.5,484.5 -0.5,98.5 Z"/></g>
<g><path style="opacity:1" fill="#f9faf9" d="M 2998.5,181.5 C 3091.5,181.5 3184.5,181.5 3277.5,181.5C 3277.5,255.833 3277.5,330.167 3277.5,404.5C 3359.5,404.5 3441.5,404.5 3523.5,404.5C 3523.5,475.5 3523.5,546.5 3523.5,617.5C 3441.5,617.5 3359.5,617.5 3277.5,617.5C 3277.33,728.501 3277.5,839.501 3278,950.5C 3276.79,979.336 3284.12,1005.67 3300,1029.5C 3310.21,1041.53 3323.04,1049.36 3338.5,1053C 3359.29,1057.25 3380.29,1058.59 3401.5,1057C 3436.41,1054.96 3470.74,1049.46 3504.5,1040.5C 3510.24,1104.91 3516.57,1169.24 3523.5,1233.5C 3502.61,1243.08 3480.94,1250.58 3458.5,1256C 3384.93,1273.19 3310.59,1277.86 3235.5,1270C 3167.58,1260.63 3111.08,1230.46 3066,1179.5C 3034.04,1138.21 3014.04,1091.54 3006,1039.5C 3001.76,1015.35 2999.43,991.018 2999,966.5C 2998.5,850.167 2998.33,733.834 2998.5,617.5C 2955.17,617.5 2911.83,617.5 2868.5,617.5C 2868.5,546.5 2868.5,475.5 2868.5,404.5C 2911.83,404.5 2955.17,404.5 2998.5,404.5C 2998.5,330.167 2998.5,255.833 2998.5,181.5 Z"/></g>
<g><path style="opacity:1" fill="#f9faf9" d="M 6299.5,181.5 C 6392.5,181.5 6485.5,181.5 6578.5,181.5C 6578.5,255.833 6578.5,330.167 6578.5,404.5C 6660.17,404.5 6741.83,404.5 6823.5,404.5C 6823.5,475.5 6823.5,546.5 6823.5,617.5C 6741.83,617.5 6660.17,617.5 6578.5,617.5C 6578.33,731.5 6578.5,845.5 6579,959.5C 6579.17,984.678 6586.17,1007.68 6600,1028.5C 6607.72,1038.45 6617.55,1045.62 6629.5,1050C 6646.71,1055.67 6664.37,1058.17 6682.5,1057.5C 6723.27,1057.24 6763.27,1051.57 6802.5,1040.5C 6803.17,1040.83 6803.83,1041.17 6804.5,1041.5C 6811.09,1104.12 6817.43,1166.78 6823.5,1229.5C 6823.17,1231.17 6822.83,1232.83 6822.5,1234.5C 6794.91,1246.73 6766.24,1255.57 6736.5,1261C 6675.97,1272.81 6614.97,1276.48 6553.5,1272C 6480.75,1265.87 6419.58,1236.37 6370,1183.5C 6333.86,1138.19 6312.19,1086.52 6305,1028.5C 6303.3,1016.88 6301.97,1005.21 6301,993.5C 6299.54,868.178 6299.04,742.844 6299.5,617.5C 6256.17,617.5 6212.83,617.5 6169.5,617.5C 6169.5,546.5 6169.5,475.5 6169.5,404.5C 6212.83,404.5 6256.17,404.5 6299.5,404.5C 6299.5,330.167 6299.5,255.833 6299.5,181.5 Z"/></g>
<g><path style="opacity:1" fill="#f9faf9" d="M 7936.5,181.5 C 8029.5,181.5 8122.5,181.5 8215.5,181.5C 8215.5,255.833 8215.5,330.167 8215.5,404.5C 8297.5,404.5 8379.5,404.5 8461.5,404.5C 8461.5,475.5 8461.5,546.5 8461.5,617.5C 8379.5,617.5 8297.5,617.5 8215.5,617.5C 8215.33,729.167 8215.5,840.834 8216,952.5C 8215.11,980.633 8222.45,1006.3 8238,1029.5C 8248.22,1041.53 8261.06,1049.36 8276.5,1053C 8297.29,1057.25 8318.29,1058.59 8339.5,1057C 8374.41,1054.96 8408.74,1049.46 8442.5,1040.5C 8448.24,1104.91 8454.57,1169.24 8461.5,1233.5C 8440.61,1243.08 8418.94,1250.58 8396.5,1256C 8322.93,1273.19 8248.59,1277.86 8173.5,1270C 8095.9,1259.31 8034.4,1222.48 7989,1159.5C 7965.93,1122.64 7950.93,1082.64 7944,1039.5C 7939.83,1015.68 7937.5,991.679 7937,967.5C 7936.5,850.834 7936.33,734.167 7936.5,617.5C 7893.17,617.5 7849.83,617.5 7806.5,617.5C 7806.5,546.5 7806.5,475.5 7806.5,404.5C 7849.83,404.5 7893.17,404.5 7936.5,404.5C 7936.5,330.167 7936.5,255.833 7936.5,181.5 Z"/></g>
<g><path style="opacity:1" fill="#f9faf9" d="M 1582.5,386.5 C 1643.22,384.376 1702.88,391.209 1761.5,407C 1906.47,451.635 1999.97,546.801 2042,692.5C 2064.95,783.083 2065.28,873.749 2043,964.5C 1996.51,1126.65 1890.84,1225.99 1726,1262.5C 1643.07,1278.82 1560.23,1278.32 1477.5,1261C 1388.48,1241.26 1313.64,1197.76 1253,1130.5C 1195.45,1059.93 1162.45,978.93 1154,887.5C 1145.5,806.666 1154.83,728 1182,651.5C 1229.68,530.492 1315.51,449.992 1439.5,410C 1486.31,396.087 1533.98,388.254 1582.5,386.5 Z M 1594.5,592.5 C 1670.2,588.796 1723.7,621.129 1755,689.5C 1766.55,716.716 1773.89,745.049 1777,774.5C 1783.89,829.473 1780.56,883.806 1767,937.5C 1741.15,1030.67 1679.99,1073.84 1583.5,1067C 1531.62,1061.33 1492.45,1036.16 1466,991.5C 1443.85,948.575 1432.18,902.908 1431,854.5C 1428.98,815.438 1431.98,776.771 1440,738.5C 1447.44,703.306 1462.1,671.64 1484,643.5C 1513.64,610.929 1550.48,593.929 1594.5,592.5 Z"/></g>
<g><path style="opacity:1" fill="#f9faf9" d="M 2487.5,386.5 C 2545.13,384.906 2602.13,390.072 2658.5,402C 2701,412.166 2741.34,427.833 2779.5,449C 2780.99,449.745 2781.99,450.912 2782.5,452.5C 2770,513.32 2757,573.987 2743.5,634.5C 2677.45,604.321 2608.12,588.654 2535.5,587.5C 2508.23,586.659 2481.57,590.159 2455.5,598C 2435.17,608.51 2427.67,625.01 2433,647.5C 2436.48,658.654 2443.32,667.154 2453.5,673C 2507.28,694.887 2561.28,716.221 2615.5,737C 2660.85,754.825 2701.85,779.491 2738.5,811C 2763.28,834.437 2783.45,861.27 2799,891.5C 2814.3,930.494 2819.3,970.827 2814,1012.5C 2803.55,1106.97 2757.05,1177.14 2674.5,1223C 2618.97,1251.63 2559.97,1267.97 2497.5,1272C 2392.76,1278.7 2290.43,1266.03 2190.5,1234C 2180.83,1230.33 2171.17,1226.67 2161.5,1223C 2160.42,1222.33 2159.75,1221.33 2159.5,1220C 2172,1156.83 2184.5,1093.67 2197,1030.5C 2197.39,1029.57 2198.05,1028.91 2199,1028.5C 2273.35,1056.84 2350.35,1071.84 2430,1073.5C 2458.93,1073.65 2487.09,1069.15 2514.5,1060C 2547.15,1049.19 2559.98,1027.02 2553,993.5C 2546.62,979.453 2536.12,969.953 2521.5,965C 2477.24,948.137 2432.91,931.47 2388.5,915C 2352.2,901.185 2317.54,884.185 2284.5,864C 2187.29,797.789 2151.12,706.622 2176,590.5C 2189.44,523.439 2225.61,472.939 2284.5,439C 2331.23,412.979 2381.23,396.979 2434.5,391C 2452.29,389.112 2469.96,387.612 2487.5,386.5 Z"/></g>
<g><path style="opacity:1" fill="#f9faf9" d="M 4362.5,386.5 C 4424.78,383.911 4485.78,391.411 4545.5,409C 4671.4,451.928 4743.9,539.428 4763,671.5C 4765.39,687.09 4767.05,702.757 4768,718.5C 4769.47,897.824 4769.97,1077.16 4769.5,1256.5C 4679.83,1256.5 4590.17,1256.5 4500.5,1256.5C 4500.67,1229.16 4500.5,1201.83 4500,1174.5C 4478.4,1195.55 4454.23,1213.05 4427.5,1227C 4341.95,1273.56 4251.95,1285.22 4157.5,1262C 4080.09,1234.92 4030.59,1181.76 4009,1102.5C 3995.39,1045.94 3997.39,989.943 4015,934.5C 4031.22,892.286 4058.39,859.119 4096.5,835C 4143.21,807.765 4193.54,791.098 4247.5,785C 4271.42,782.007 4295.42,780.007 4319.5,779C 4376.49,776.523 4433.49,774.356 4490.5,772.5C 4491.11,751.06 4489.94,729.727 4487,708.5C 4477.97,661.572 4450.81,630.739 4405.5,616C 4376.69,608.084 4347.36,605.084 4317.5,607C 4246.59,609.686 4179.42,626.853 4116,658.5C 4115.05,658.095 4114.39,657.428 4114,656.5C 4097.02,592.58 4080.69,528.58 4065,464.5C 4142.71,422.935 4225.54,398.101 4313.5,390C 4329.98,388.642 4346.31,387.475 4362.5,386.5 Z M 4485.5,926.5 C 4487.17,926.5 4488.83,926.5 4490.5,926.5C 4490.67,968.501 4490.5,1010.5 4490,1052.5C 4440.06,1081.78 4386.22,1093.94 4328.5,1089C 4280.99,1078.86 4261.16,1049.69 4269,1001.5C 4274.35,980.627 4286.52,965.127 4305.5,955C 4314.81,950.673 4324.48,947.34 4334.5,945C 4384.87,937.921 4435.2,931.754 4485.5,926.5 Z"/></g>
<g><path style="opacity:1" fill="#f9faf9" d="M 7294.5,386.5 C 7352.11,384.3 7408.77,390.467 7464.5,405C 7586.65,440.146 7661.81,519.646 7690,643.5C 7696.29,673.178 7699.96,703.178 7701,733.5C 7701.5,907.833 7701.67,1082.17 7701.5,1256.5C 7611.83,1256.5 7522.17,1256.5 7432.5,1256.5C 7432.67,1229.16 7432.5,1201.83 7432,1174.5C 7411.02,1195.15 7387.52,1212.31 7361.5,1226C 7277.92,1272.15 7189.59,1284.82 7096.5,1264C 7015.05,1238.22 6963.22,1184.05 6941,1101.5C 6930.02,1053.92 6929.68,1006.25 6940,958.5C 6954.64,900.352 6988.14,856.852 7040.5,828C 7081.91,805.978 7125.91,791.978 7172.5,786C 7198.72,782.398 7225.05,780.065 7251.5,779C 7308.49,776.543 7365.49,774.377 7422.5,772.5C 7430.67,660.668 7378.67,605.335 7266.5,606.5C 7189.15,607.172 7115.82,624.505 7046.5,658.5C 7030.07,594.288 7013.41,530.121 6996.5,466C 7014.47,454.512 7033.47,444.846 7053.5,437C 7130.93,405.748 7211.27,388.915 7294.5,386.5 Z M 7417.5,926.5 C 7419.17,926.5 7420.83,926.5 7422.5,926.5C 7422.67,968.501 7422.5,1010.5 7422,1052.5C 7372.05,1081.78 7318.22,1093.94 7260.5,1089C 7215.97,1080.43 7195.8,1053.59 7200,1008.5C 7204.42,981.422 7219.25,962.588 7244.5,952C 7255.16,947.78 7266.16,944.78 7277.5,943C 7324.28,937.152 7370.94,931.652 7417.5,926.5 Z"/></g>
<g><path style="opacity:1" fill="#f9faf9" d="M 9457.5,386.5 C 9520.71,384.245 9582.71,391.745 9643.5,409C 9794.11,458.619 9887.28,560.786 9923,715.5C 9935.6,778.438 9937.94,841.771 9930,905.5C 9918.96,993.046 9884.96,1070.05 9828,1136.5C 9775.99,1192.45 9713.15,1231.28 9639.5,1253C 9541.67,1279.1 9443.33,1281.1 9344.5,1259C 9194.37,1221.2 9095.53,1128.7 9048,981.5C 9018.2,876.099 9019.53,771.099 9052,666.5C 9096.33,540.174 9181.83,455.341 9308.5,412C 9357.15,396.781 9406.82,388.281 9457.5,386.5 Z M 9469.5,592.5 C 9548.01,589.242 9602.51,623.575 9633,695.5C 9645.97,730.33 9653.3,766.33 9655,803.5C 9658.51,856.087 9652.18,907.42 9636,957.5C 9609.58,1029.97 9557.75,1066.97 9480.5,1068.5C 9403.81,1066.95 9352.31,1030.28 9326,958.5C 9312.14,916.988 9305.3,874.321 9305.5,830.5C 9305.65,794.277 9310.15,758.61 9319,723.5C 9328.04,688.227 9345.21,657.727 9370.5,632C 9398.72,606.98 9431.72,593.813 9469.5,592.5 Z"/></g>
<g><path style="opacity:1" fill="#f9faf9" d="M 10573.5,386.5 C 10690.3,381.634 10778.5,428.967 10838,528.5C 10869.7,586.52 10888.7,648.52 10895,714.5C 10897.3,733.107 10899,751.774 10900,770.5C 10901.5,932.492 10902,1094.49 10901.5,1256.5C 10808.5,1256.5 10715.5,1256.5 10622.5,1256.5C 10622.7,1103.83 10622.5,951.166 10622,798.5C 10622.2,759.811 10616.2,722.144 10604,685.5C 10583.6,633.021 10545.1,606.688 10488.5,606.5C 10435.7,607.464 10393.9,629.131 10363,671.5C 10362.5,866.5 10362.3,1061.5 10362.5,1256.5C 10269.5,1256.5 10176.5,1256.5 10083.5,1256.5C 10083.5,972.5 10083.5,688.5 10083.5,404.5C 10172.8,404.5 10262.2,404.5 10351.5,404.5C 10351.3,440.835 10351.5,477.168 10352,513.5C 10391.9,445.439 10451,404.939 10529.5,392C 10544.2,389.531 10558.9,387.698 10573.5,386.5 Z"/></g>
<g><path style="opacity:1" fill="#f9faf9" d="M 8598.5,404.5 C 8691.83,404.5 8785.17,404.5 8878.5,404.5C 8878.5,688.5 8878.5,972.5 8878.5,1256.5C 8785.17,1256.5 8691.83,1256.5 8598.5,1256.5C 8598.5,972.5 8598.5,688.5 8598.5,404.5 Z"/></g>
<g><path style="opacity:1" fill="#63f900" d="M 11077.5,407.5 C 11174.2,407.5 11270.8,407.5 11367.5,407.5C 11367.5,476.5 11367.5,545.5 11367.5,614.5C 11398.2,614.5 11428.8,614.5 11459.5,614.5C 11459.5,545.5 11459.5,476.5 11459.5,407.5C 11560.5,407.167 11661.5,407.5 11762.5,408.5C 11885.1,551.938 12011.9,691.938 12143,828.5C 12144.5,831.366 12144.8,834.366 12144,837.5C 12141.3,839.871 12139,842.537 12137,845.5C 12007,987.177 11878.8,1130.34 11752.5,1275C 11654.8,1275.5 11557.2,1275.67 11459.5,1275.5C 11459.5,1201.5 11459.5,1127.5 11459.5,1053.5C 11429.7,1051.73 11400.2,1053.73 11371,1059.5C 11368.1,1131.47 11366.9,1203.47 11367.5,1275.5C 11270.8,1275.5 11174.2,1275.5 11077.5,1275.5C 11077.5,986.167 11077.5,696.833 11077.5,407.5 Z"/></g>
</svg>
