<?xml version="1.0" encoding="UTF-8"?>
<!DOCTYPE svg PUBLIC "-//W3C//DTD SVG 1.1//EN" "http://www.w3.org/Graphics/SVG/1.1/DTD/svg11.dtd">
<svg xmlns="http://www.w3.org/2000/svg" version="1.1" width="183px" height="149px" style="shape-rendering:geometricPrecision; text-rendering:geometricPrecision; image-rendering:optimizeQuality; fill-rule:evenodd; clip-rule:evenodd" xmlns:xlink="http://www.w3.org/1999/xlink">
<g><path style="opacity:1" fill="#000000" d="M -0.5,-0.5 C 16.1667,-0.5 32.8333,-0.5 49.5,-0.5C 49.5,11.5 49.5,23.5 49.5,35.5C 54.8333,35.5 60.1667,35.5 65.5,35.5C 65.5,23.5 65.5,11.5 65.5,-0.5C 82.5,-0.5 99.5,-0.5 116.5,-0.5C 137.789,24.4567 159.789,48.79 182.5,72.5C 182.5,72.8333 182.5,73.1667 182.5,73.5C 159.796,98.2022 137.463,123.202 115.5,148.5C 98.8333,148.5 82.1667,148.5 65.5,148.5C 65.5,135.833 65.5,123.167 65.5,110.5C 60.2384,110.195 55.0717,110.529 50,111.5C 49.5001,123.829 49.3335,136.162 49.5,148.5C 32.8333,148.5 16.1667,148.5 -0.5,148.5C -0.5,98.8333 -0.5,49.1667 -0.5,-0.5 Z"/></g>
</svg>
